<?xml version="1.0" standalone="no"?>
<!DOCTYPE svg PUBLIC "-//W3C//DTD SVG 20010904//EN"
 "http://www.w3.org/TR/2001/REC-SVG-20010904/DTD/svg10.dtd">
<svg version="1.0" xmlns="http://www.w3.org/2000/svg"
 width="191.552166pt" height="197.889730pt" viewBox="0 0 191.552166 197.889730"
 preserveAspectRatio="xMidYMid meet">
<metadata>
Created by potrace 1.12, written by Peter Selinger 2001-2015
</metadata>
<g transform="translate(-45.276794,244.895227) scale(0.100000,-0.100000)"
fill="#000000" stroke="none">
<path d="M1996 2431 c-11 -12 -39 -30 -62 -40 -44 -20 -64 -45 -64 -80 0 -20
-3 -20 -173 -14 -161 6 -178 5 -243 -16 -86 -28 -178 -76 -215 -114 -26 -25
-29 -35 -29 -92 0 -58 14 -114 29 -115 3 -1 19 -12 36 -25 l30 -24 -33 -34
c-29 -30 -33 -40 -30 -77 3 -38 8 -47 47 -74 28 -20 47 -44 55 -67 28 -81 110
-152 190 -164 l48 -8 -34 -36 c-19 -20 -47 -55 -64 -78 -16 -24 -39 -57 -51
-74 -26 -37 -31 -105 -9 -134 9 -13 31 -21 67 -25 l54 -5 6 -42 c5 -41 4 -42
-28 -48 -19 -3 -54 -15 -79 -26 -25 -10 -58 -19 -73 -19 -14 0 -51 -7 -81 -16
-130 -37 -145 -36 -215 2 l-64 35 -15 -23 c-15 -24 -10 -60 29 -194 8 -28 15
-58 15 -67 0 -9 10 -32 22 -52 21 -36 22 -37 67 -30 43 6 100 21 247 66 38 11
122 22 228 29 93 5 172 13 177 16 5 3 9 -25 9 -61 0 -68 35 -179 68 -217 18
-21 82 -24 115 -6 61 32 141 106 164 153 17 32 82 127 95 135 16 12 58 82 58
97 0 9 7 43 16 75 14 50 15 77 6 196 -11 149 -31 226 -77 292 -36 52 -124 144
-157 165 -31 19 -36 46 -13 65 8 7 15 18 15 25 0 8 14 11 48 8 43 -5 50 -2 85
31 48 48 51 97 8 161 -20 29 -30 58 -33 97 l-4 54 51 -4 c45 -4 55 -1 74 19
11 12 21 30 21 38 0 9 9 40 20 70 13 33 20 71 18 98 -3 50 -5 52 -143 113 -38
17 -80 41 -92 52 -14 13 -40 23 -70 25 -40 4 -51 1 -67 -16z m-346 -356 c9
-11 35 -15 106 -15 57 0 94 -4 94 -10 0 -14 86 -67 121 -75 46 -10 89 -60 89
-102 0 -35 0 -35 18 -14 9 12 33 24 53 27 33 6 38 3 58 -29 33 -54 26 -82 -29
-120 -28 -19 -85 -23 -96 -6 -8 13 -33 -25 -34 -50 0 -27 -52 -91 -99 -122
l-46 -30 -185 3 c-209 3 -225 8 -289 89 -29 35 -35 51 -39 109 l-4 67 30 -5
c26 -3 31 -9 34 -36 3 -28 6 -31 41 -34 21 -2 45 2 53 9 20 16 18 66 -3 79
-14 8 -7 9 30 4 42 -6 47 -4 47 14 0 41 -33 65 -96 70 -32 3 -70 12 -83 20
-21 14 -21 17 -7 27 9 7 16 18 16 26 0 15 52 49 75 49 15 0 102 48 110 61 9
13 21 11 35 -6z m-265 -155 c-4 -6 -1 -18 6 -26 11 -14 10 -15 -11 -12 -15 2
-26 11 -28 22 -2 11 0 16 6 12 6 -3 13 -2 17 4 3 5 8 10 11 10 3 0 2 -5 -1
-10z m-55 -131 c0 -37 -2 -39 -20 -29 -22 12 -27 49 -8 68 18 18 28 4 28 -39z
m687 -261 l-22 -30 -3 27 c-4 34 15 60 34 44 11 -9 9 -16 -9 -41z m-307 -83
c0 -43 20 -55 93 -55 41 0 68 7 110 30 31 17 59 30 61 30 4 0 4 -150 0 -150
-1 0 -12 9 -25 20 -19 17 -35 21 -94 19 -69 -1 -149 10 -173 25 -13 8 -17 98
-5 109 17 18 33 5 33 -28z m-109 -73 c-76 -55 -90 -95 -50 -146 29 -37 45 -33
73 23 28 53 39 61 96 61 30 0 43 -6 59 -26 32 -40 27 -54 -18 -54 -37 0 -68
-19 -54 -33 3 -4 24 -7 45 -7 25 0 38 -4 38 -14 0 -9 -8 -12 -24 -9 -31 6 -93
-34 -77 -50 7 -7 23 -6 51 3 22 7 42 11 44 9 2 -2 -2 -18 -9 -36 -17 -41 -51
-50 -119 -33 -66 16 -76 25 -76 66 0 37 -21 54 -65 54 -29 0 -55 20 -55 43 0
24 22 69 59 120 30 41 39 47 70 47 l36 -1 -24 -17z m626 -31 c60 -142 54 -270
-12 -287 -14 -3 -59 -3 -100 1 l-75 7 0 38 c0 31 4 39 23 44 12 4 40 29 62 56
22 27 46 50 53 50 8 0 12 21 12 71 0 77 11 83 37 20z m-590 -7 c-15 -8 -32
-26 -37 -40 -9 -23 -30 -34 -30 -15 0 13 68 71 83 71 7 -1 -1 -8 -16 -16z
m293 -52 c0 -10 5 -23 12 -30 16 -16 58 -15 58 2 0 28 27 39 62 26 53 -21 55
-27 17 -66 -29 -30 -39 -34 -66 -29 -38 7 -51 -9 -29 -34 9 -10 16 -31 16 -47
0 -25 -6 -32 -33 -42 -42 -15 -99 -15 -131 -1 -32 15 -24 29 15 29 36 0 40 27
4 36 -35 9 -32 34 4 34 17 0 33 -4 36 -10 11 -17 35 -11 35 10 0 23 -28 40
-64 40 -22 0 -26 5 -26 29 0 16 -3 36 -6 44 -6 17 12 24 64 26 25 1 32 -3 32
-17z m-23 -272 c30 0 62 4 71 9 10 5 57 4 116 -2 68 -7 111 -7 137 0 38 10 39
10 39 -17 0 -27 -32 -137 -48 -165 -6 -12 -11 -7 -21 20 -19 53 -92 88 -177
83 -55 -3 -64 -1 -64 14 0 18 -11 22 -86 32 -75 10 -80 -35 -6 -50 29 -6 46
-24 22 -24 -5 0 -21 -17 -35 -37 -26 -39 -72 -58 -170 -70 l-40 -5 -28 71
c-15 39 -27 75 -27 80 0 5 -7 14 -15 21 -12 10 -13 16 -4 26 6 8 17 14 24 14
8 0 15 5 17 10 2 7 15 7 38 0 50 -14 106 -12 120 5 11 13 16 13 47 0 20 -8 60
-15 90 -15z m-427 -121 c28 -105 27 -109 -17 -109 -21 0 -76 -12 -122 -25 -47
-14 -87 -25 -90 -25 -4 0 -15 27 -25 60 -11 33 -28 68 -38 77 -22 19 -39 12
172 68 36 10 72 21 80 25 8 4 16 7 18 5 1 -1 11 -35 22 -76z m556 -78 c23 -14
34 -31 43 -64 19 -77 15 -107 -21 -144 -18 -18 -36 -33 -40 -33 -4 0 -8 28 -8
62 0 48 -6 71 -25 104 -36 61 -58 71 -95 44 -33 -24 -35 -22 -19 14 7 14 21
27 33 29 52 10 103 6 132 -12z"/>
<path d="M1450 1973 c0 -15 8 -17 50 -15 35 3 50 8 50 18 0 10 -14 14 -50 14
-41 0 -50 -3 -50 -17z"/>
<path d="M1751 1967 c-17 -21 -3 -27 61 -27 43 0 58 4 58 14 0 8 -7 17 -16 20
-28 11 -91 6 -103 -7z"/>
<path d="M1701 1916 c-10 -11 -7 -17 10 -30 22 -15 22 -16 5 -35 -17 -18 -16
-20 6 -35 12 -9 33 -16 45 -16 20 0 22 -2 11 -20 -9 -13 -9 -27 -2 -47 8 -25
15 -28 61 -31 49 -3 53 -1 59 22 3 15 3 37 0 51 -6 22 -3 25 23 25 44 0 61 10
61 36 0 27 -29 45 -105 64 -33 8 -58 9 -75 2 -18 -7 -32 -4 -56 10 -27 16 -33
16 -43 4z"/>
<path d="M1615 1681 c-9 -16 3 -31 26 -31 14 0 19 6 17 17 -4 20 -33 29 -43
14z"/>
<path d="M1661 1607 c-14 -18 -4 -27 31 -27 31 0 39 24 12 34 -23 9 -30 8 -43
-7z"/>
<path d="M665 2213 c-38 -10 -150 -101 -173 -141 -48 -86 -14 -234 71 -309 61
-53 143 -86 229 -91 104 -6 181 5 207 29 21 19 21 19 62 0 22 -11 61 -23 85
-27 l44 -6 0 41 c0 23 -6 52 -14 64 -12 19 -12 29 4 77 10 30 19 78 19 106 1
45 -4 58 -48 120 -67 94 -90 114 -158 130 -55 13 -283 18 -328 7z m295 -62
c19 -11 57 -29 83 -42 58 -26 117 -106 117 -154 -1 -39 -23 -101 -45 -126 -17
-18 -17 -21 9 -59 14 -22 26 -42 26 -45 0 -9 -41 -5 -63 7 -12 6 -37 15 -57
19 -29 7 -39 4 -58 -13 -19 -18 -38 -23 -113 -26 -128 -6 -196 15 -266 83 -57
57 -73 97 -73 186 0 52 3 59 40 97 23 23 60 48 87 57 27 9 57 21 68 25 11 5
63 9 115 9 75 1 102 -3 130 -18z"/>
<path d="M808 1977 c-21 -18 -25 -26 -18 -44 7 -18 17 -23 43 -23 40 0 57 15
57 51 0 43 -40 52 -82 16z"/>
<path d="M1002 1988 c-17 -17 -15 -32 6 -51 24 -22 45 -21 66 2 14 15 15 24 6
40 -12 24 -58 29 -78 9z"/>
<path d="M642 1957 c-27 -29 -28 -43 -3 -57 41 -21 81 1 81 45 0 40 -45 47
-78 12z"/>
<path d="M502 1633 c-25 -3 -45 -10 -49 -18 -3 -8 4 -45 16 -81 12 -37 21 -74
21 -82 0 -14 10 -49 56 -197 11 -38 15 -40 60 -47 27 -4 99 -17 159 -29 116
-23 156 -25 403 -14 l152 7 0 37 c0 20 -4 42 -9 50 -9 15 -135 40 -203 40
l-38 1 0 149 0 149 -27 10 c-71 27 -366 40 -541 25z m338 -119 c63 -3 116 -6
118 -8 1 -2 6 -42 9 -90 l6 -86 -94 0 c-52 0 -128 5 -170 12 l-77 12 -21 72
c-32 109 -33 107 47 100 37 -4 119 -9 182 -12z"/>
</g>
</svg>
